HIERARCHY
ROOT Hips
{
	OFFSET 0.000000 0.000000 0.000000
	CHANNELS 6 Xposition Yposition Zposition Xrotation Yrotation Zrotation
	JOINT Thigh.L
	{
		OFFSET 0.055239 0.031158 -0.093081
		CHANNELS 3 Xrotation Yrotation Zrotation
		JOINT Shin.L
		{
			OFFSET 0.054095 0.015849 -0.413936
			CHANNELS 3 Xrotation Yrotation Zrotation
			JOINT Foot.L
			{
				OFFSET -0.042136 0.033900 -0.434193
				CHANNELS 3 Xrotation Yrotation Zrotation
				JOINT Toe.L
				{
					OFFSET 0.045295 -0.119983 -0.064087
					CHANNELS 3 Xrotation Yrotation Zrotation
					End Site
					{
						OFFSET 0.000000 0.050000 0.000000
					}
				}
			}
		}
	}
	JOINT Thigh.R
	{
		OFFSET -0.060551 0.028353 -0.103502
		CHANNELS 3 Xrotation Yrotation Zrotation
		JOINT Shin.R
		{
			OFFSET -0.043326 0.021457 -0.397580
			CHANNELS 3 Xrotation Yrotation Zrotation
			JOINT Foot.R
			{
				OFFSET 0.015764 0.022240 -0.443143
				CHANNELS 3 Xrotation Yrotation Zrotation
				JOINT Toe.R
				{
					OFFSET -0.037406 -0.120703 -0.064050
					CHANNELS 3 Xrotation Yrotation Zrotation
					End Site
					{
						OFFSET 0.000000 0.050000 0.000000
					}
				}
			}
		}
	}
	JOINT Spine
	{
		OFFSET -0.002204 0.019692 0.110576
		CHANNELS 3 Xrotation Yrotation Zrotation
		JOINT Spine.2
		{
			OFFSET 0.006995 0.002850 0.136103
			CHANNELS 3 Xrotation Yrotation Zrotation
			JOINT Chest
			{
				OFFSET -0.010486 -0.023570 0.050036
				CHANNELS 3 Xrotation Yrotation Zrotation
				JOINT Neck
				{
					OFFSET -0.009539 0.029280 0.166280
					CHANNELS 3 Xrotation Yrotation Zrotation
					JOINT Head
					{
						OFFSET 0.022352 -0.023107 0.170384
						CHANNELS 3 Xrotation Yrotation Zrotation
						End Site
						{
							OFFSET 0.000000 0.050000 0.000000
						}
					}
				}
				JOINT Clavicle.L
				{
					OFFSET 0.043410 0.008324 0.084906
					CHANNELS 3 Xrotation Yrotation Zrotation
					JOINT UpperArm.L
					{
						OFFSET 0.106972 0.014986 0.062136
						CHANNELS 3 Xrotation Yrotation Zrotation
						JOINT ForeArm.L
						{
							OFFSET 0.264898 0.035726 -0.076328
							CHANNELS 3 Xrotation Yrotation Zrotation
							JOINT Hand.L
							{
								OFFSET 0.264006 0.006212 0.021444
								CHANNELS 3 Xrotation Yrotation Zrotation
								JOINT Thumb1.L
								{
									OFFSET 0.154573 0.002813 0.009712
									CHANNELS 3 Xrotation Yrotation Zrotation
									JOINT Thumb2.L
									{
										OFFSET 0.029893 0.000703 0.002428
										CHANNELS 3 Xrotation Yrotation Zrotation
										End Site
										{
											OFFSET 0.024911 0.000586 0.002023
										}
									}
								}
								JOINT Index1.L
								{
									OFFSET 0.137573 0.002813 0.009712
									CHANNELS 3 Xrotation Yrotation Zrotation
									JOINT Index2.L
									{
										OFFSET 0.029893 0.000703 0.002428
										CHANNELS 3 Xrotation Yrotation Zrotation
										JOINT Index3.L
										{
											OFFSET 0.021922 0.000516 0.001781
											CHANNELS 3 Xrotation Yrotation Zrotation
											End Site
											{
												OFFSET 0.017936 0.000422 0.001457
											}
										}
									}
								}
								JOINT Middle1.L
								{
									OFFSET 0.119573 0.002813 0.009712
									CHANNELS 3 Xrotation Yrotation Zrotation
									JOINT Middle2.L
									{
										OFFSET 0.030890 0.000727 0.002509
										CHANNELS 3 Xrotation Yrotation Zrotation
										JOINT Middle3.L
										{
											OFFSET 0.021922 0.000516 0.001781
											CHANNELS 3 Xrotation Yrotation Zrotation
											End Site
											{
												OFFSET 0.017936 0.000422 0.001457
											}
										}
									}
								}
								JOINT Ring1.L
								{
									OFFSET 0.101573 0.002813 0.009712
									CHANNELS 3 Xrotation Yrotation Zrotation
									JOINT Ring2.L
									{
										OFFSET 0.028897 0.000680 0.002347
										CHANNELS 3 Xrotation Yrotation Zrotation
										JOINT Ring3.L
										{
											OFFSET 0.019929 0.000469 0.001619
											CHANNELS 3 Xrotation Yrotation Zrotation
											End Site
											{
												OFFSET 0.016940 0.000399 0.001376
											}
										}
									}
								}
								JOINT Pinky1.L
								{
									OFFSET 0.085573 0.002813 0.009712
									CHANNELS 3 Xrotation Yrotation Zrotation
									JOINT Pinky2.L
									{
										OFFSET 0.023915 0.000563 0.001942
										CHANNELS 3 Xrotation Yrotation Zrotation
										JOINT Pinky3.L
										{
											OFFSET 0.016940 0.000399 0.001376
											CHANNELS 3 Xrotation Yrotation Zrotation
											End Site
											{
												OFFSET 0.013950 0.000328 0.001133
											}
										}
									}
								}
							}
						}
					}
				}
				JOINT Clavicle.R
				{
					OFFSET -0.041632 0.014470 0.084340
					CHANNELS 3 Xrotation Yrotation Zrotation
					JOINT UpperArm.R
					{
						OFFSET -0.092392 0.009933 0.057744
						CHANNELS 3 Xrotation Yrotation Zrotation
						JOINT ForeArm.R
						{
							OFFSET -0.280957 0.022924 -0.043145
							CHANNELS 3 Xrotation Yrotation Zrotation
							JOINT Hand.R
							{
								OFFSET -0.260730 0.018863 -0.003611
								CHANNELS 3 Xrotation Yrotation Zrotation
								JOINT Thumb1.R
								{
									OFFSET -0.154676 0.008658 -0.001657
									CHANNELS 3 Xrotation Yrotation Zrotation
									JOINT Thumb2.R
									{
										OFFSET -0.029919 0.002165 -0.000414
										CHANNELS 3 Xrotation Yrotation Zrotation
										End Site
										{
											OFFSET -0.024932 0.001804 -0.000345
										}
									}
								}
								JOINT Index1.R
								{
									OFFSET -0.137676 0.008658 -0.001657
									CHANNELS 3 Xrotation Yrotation Zrotation
									JOINT Index2.R
									{
										OFFSET -0.029919 0.002165 -0.000414
										CHANNELS 3 Xrotation Yrotation Zrotation
										JOINT Index3.R
										{
											OFFSET -0.021941 0.001587 -0.000304
											CHANNELS 3 Xrotation Yrotation Zrotation
											End Site
											{
												OFFSET -0.017951 0.001299 -0.000249
											}
										}
									}
								}
								JOINT Middle1.R
								{
									OFFSET -0.119676 0.008658 -0.001657
									CHANNELS 3 Xrotation Yrotation Zrotation
									JOINT Middle2.R
									{
										OFFSET -0.030916 0.002237 -0.000428
										CHANNELS 3 Xrotation Yrotation Zrotation
										JOINT Middle3.R
										{
											OFFSET -0.021941 0.001587 -0.000304
											CHANNELS 3 Xrotation Yrotation Zrotation
											End Site
											{
												OFFSET -0.017951 0.001299 -0.000249
											}
										}
									}
								}
								JOINT Ring1.R
								{
									OFFSET -0.101676 0.008658 -0.001657
									CHANNELS 3 Xrotation Yrotation Zrotation
									JOINT Ring2.R
									{
										OFFSET -0.028922 0.002092 -0.000401
										CHANNELS 3 Xrotation Yrotation Zrotation
										JOINT Ring3.R
										{
											OFFSET -0.019946 0.001443 -0.000276
											CHANNELS 3 Xrotation Yrotation Zrotation
											End Site
											{
												OFFSET -0.016954 0.001227 -0.000235
											}
										}
									}
								}
								JOINT Pinky1.R
								{
									OFFSET -0.085676 0.008658 -0.001657
									CHANNELS 3 Xrotation Yrotation Zrotation
									JOINT Pinky2.R
									{
										OFFSET -0.023935 0.001732 -0.000331
										CHANNELS 3 Xrotation Yrotation Zrotation
										JOINT Pinky3.R
										{
											OFFSET -0.016954 0.001227 -0.000235
											CHANNELS 3 Xrotation Yrotation Zrotation
											End Site
											{
												OFFSET -0.013962 0.001010 -0.000193
											}
										}
									}
								}
							}
						}
					}
				}
			}
		}
	}
}
MOTION
Frames: 8
Frame Time: 0.04166667
0.036064 -0.266088 1.024590 -14.143298 -0.863271 3.969827 -69.628520 -4.888157 -13.061910 113.881433 10.503008 -13.820845 -25.707851 -5.158110 5.524271 -2.701648 -6.962361 -2.250513 -74.617448 7.310990 10.341021 121.204912 -14.153767 7.463688 -34.470880 10.953768 -1.200456 2.330985 -7.247445 0.012183 38.419554 0.073022 0.429758 2.457933 -7.761928 -3.687358 -12.044385 3.231628 1.837179 -0.532087 3.565410 12.773789 0.687902 2.205206 1.882166 7.402915 16.597497 -22.358756 -3.579415 35.827352 -23.103168 0.746750 -9.454602 -28.233434 -0.208943 -11.027202 -0.943992 0.000000 0.000000 0.000000 0.000000 0.000000 0.000000 0.000000 0.000000 0.000000 0.000000 0.000000 0.000000 0.000000 0.000000 0.000000 0.000000 0.000000 0.000000 0.000000 0.000000 0.000000 0.000000 0.000000 0.000000 0.000000 0.000000 0.000000 0.000000 0.000000 0.000000 0.000000 0.000000 0.000000 0.000000 0.000000 0.000000 0.000000 0.000000 0.000000 0.000000 0.000000 0.000000 6.151142 -15.491981 18.660726 6.659037 -39.221397 24.706376 -2.347190 11.474712 32.732863 -4.488217 2.199973 2.352518 0.000000 0.000000 0.000000 0.000000 0.000000 0.000000 0.000000 0.000000 0.000000 0.000000 0.000000 0.000000 0.000000 0.000000 0.000000 0.000000 0.000000 0.000000 0.000000 0.000000 0.000000 0.000000 0.000000 0.000000 0.000000 0.000000 0.000000 0.000000 0.000000 0.000000 0.000000 0.000000 0.000000 0.000000 0.000000 0.000000 0.000000 0.000000 0.000000 0.000000 0.000000 0.000000
0.036451 -0.268537 1.023173 -14.423170 -0.890405 3.977996 -69.903141 -4.858653 -13.168678 114.378201 10.423705 -13.925296 -25.747664 -5.246412 5.513812 -2.713577 -6.821258 -2.228747 -74.928983 7.397756 10.428319 121.896722 -14.048077 7.569548 -34.909113 11.222204 -1.130475 2.322952 -7.320968 -0.002918 38.735958 0.082394 0.432647 2.490046 -7.783518 -3.656129 -12.164881 3.236495 1.847106 -0.421129 3.563567 12.773080 0.692983 2.183778 1.842249 7.408812 16.554777 -22.467141 -3.653413 35.787339 -23.075692 0.797183 -9.557719 -28.310963 -0.165384 -10.966589 -1.000098 0.000000 0.000000 0.000000 0.000000 0.000000 0.000000 0.000000 0.000000 0.000000 0.000000 0.000000 0.000000 0.000000 0.000000 0.000000 0.000000 0.000000 0.000000 0.000000 0.000000 0.000000 0.000000 0.000000 0.000000 0.000000 0.000000 0.000000 0.000000 0.000000 0.000000 0.000000 0.000000 0.000000 0.000000 0.000000 0.000000 0.000000 0.000000 0.000000 0.000000 0.000000 0.000000 6.186408 -15.438506 18.813098 6.540696 -39.222362 24.661080 -2.416563 11.528071 32.731036 -4.414076 2.239276 2.392228 0.000000 0.000000 0.000000 0.000000 0.000000 0.000000 0.000000 0.000000 0.000000 0.000000 0.000000 0.000000 0.000000 0.000000 0.000000 0.000000 0.000000 0.000000 0.000000 0.000000 0.000000 0.000000 0.000000 0.000000 0.000000 0.000000 0.000000 0.000000 0.000000 0.000000 0.000000 0.000000 0.000000 0.000000 0.000000 0.000000 0.000000 0.000000 0.000000 0.000000 0.000000 0.000000
0.036434 -0.270439 1.022296 -14.707830 -0.894534 3.978221 -70.096033 -4.833098 -13.258271 114.867218 10.331126 -13.998321 -25.739983 -5.298383 5.490474 -2.743579 -6.714833 -2.202133 -75.145283 7.458541 10.512321 122.552490 -13.935645 7.665543 -35.224728 11.439543 -1.043674 2.332746 -7.427458 -0.034856 39.033892 0.035815 0.413461 2.463126 -7.795527 -3.640046 -12.228461 3.244435 1.854710 -0.421743 3.565319 12.755040 0.638651 2.159324 1.815434 7.396384 16.496849 -22.526948 -3.648644 35.827487 -23.079656 0.830567 -9.662068 -28.330737 -0.214859 -10.986546 -1.013550 0.000000 0.000000 0.000000 0.000000 0.000000 0.000000 0.000000 0.000000 0.000000 0.000000 0.000000 0.000000 0.000000 0.000000 0.000000 0.000000 0.000000 0.000000 0.000000 0.000000 0.000000 0.000000 0.000000 0.000000 0.000000 0.000000 0.000000 0.000000 0.000000 0.000000 0.000000 0.000000 0.000000 0.000000 0.000000 0.000000 0.000000 0.000000 0.000000 0.000000 0.000000 0.000000 6.170535 -15.330925 18.918454 6.532271 -39.257279 24.740681 -2.429573 11.534776 32.642752 -4.318749 2.334568 2.412960 0.000000 0.000000 0.000000 0.000000 0.000000 0.000000 0.000000 0.000000 0.000000 0.000000 0.000000 0.000000 0.000000 0.000000 0.000000 0.000000 0.000000 0.000000 0.000000 0.000000 0.000000 0.000000 0.000000 0.000000 0.000000 0.000000 0.000000 0.000000 0.000000 0.000000 0.000000 0.000000 0.000000 0.000000 0.000000 0.000000 0.000000 0.000000 0.000000 0.000000 0.000000 0.000000
0.036832 -0.271515 1.021717 -14.901637 -0.926294 3.986953 -70.176389 -4.801665 -13.313419 115.180495 10.261494 -14.041949 -25.997935 -5.446206 5.487787 -2.725765 -6.599056 -2.187010 -75.275585 7.488235 10.588488 123.046847 -13.859122 7.707047 -35.698091 11.649646 -1.018149 2.317703 -7.423684 -0.030349 39.265265 0.068204 0.413452 2.500738 -7.834211 -3.629188 -12.353619 3.234439 1.871528 -0.345783 3.556358 12.659709 0.600943 2.070947 1.845164 7.447282 16.484782 -22.598480 -3.672176 35.819419 -23.055311 0.931104 -9.783369 -28.388060 -0.192244 -10.950771 -1.068482 0.000000 0.000000 0.000000 0.000000 0.000000 0.000000 0.000000 0.000000 0.000000 0.000000 0.000000 0.000000 0.000000 0.000000 0.000000 0.000000 0.000000 0.000000 0.000000 0.000000 0.000000 0.000000 0.000000 0.000000 0.000000 0.000000 0.000000 0.000000 0.000000 0.000000 0.000000 0.000000 0.000000 0.000000 0.000000 0.000000 0.000000 0.000000 0.000000 0.000000 0.000000 0.000000 6.237497 -15.280210 19.021587 6.435148 -39.285353 24.714267 -2.454593 11.584710 32.579262 -4.296777 2.390937 2.440275 0.000000 0.000000 0.000000 0.000000 0.000000 0.000000 0.000000 0.000000 0.000000 0.000000 0.000000 0.000000 0.000000 0.000000 0.000000 0.000000 0.000000 0.000000 0.000000 0.000000 0.000000 0.000000 0.000000 0.000000 0.000000 0.000000 0.000000 0.000000 0.000000 0.000000 0.000000 0.000000 0.000000 0.000000 0.000000 0.000000 0.000000 0.000000 0.000000 0.000000 0.000000 0.000000
0.036878 -0.271892 1.021301 -14.997743 -0.923811 4.007913 -70.284461 -4.766092 -13.372618 115.413767 10.202674 -14.078918 -26.295232 -5.625733 5.504561 -2.732409 -6.534297 -2.179608 -75.364929 7.507962 10.628734 123.410247 -13.797885 7.751031 -36.286273 11.857545 -0.961985 2.304301 -7.443953 -0.037550 39.471134 0.074557 0.417602 2.522676 -7.852083 -3.639087 -12.414678 3.219588 1.871021 -0.294131 3.583528 12.677829 0.564584 2.033906 1.923836 7.445000 16.455446 -22.663264 -3.698920 35.793662 -23.001752 1.027289 -9.879980 -28.456730 -0.070879 -11.060588 -1.094630 0.000000 0.000000 0.000000 0.000000 0.000000 0.000000 0.000000 0.000000 0.000000 0.000000 0.000000 0.000000 0.000000 0.000000 0.000000 0.000000 0.000000 0.000000 0.000000 0.000000 0.000000 0.000000 0.000000 0.000000 0.000000 0.000000 0.000000 0.000000 0.000000 0.000000 0.000000 0.000000 0.000000 0.000000 0.000000 0.000000 0.000000 0.000000 0.000000 0.000000 0.000000 0.000000 6.217126 -15.214974 19.094279 6.404240 -39.345538 24.700032 -2.455865 11.625663 32.568828 -4.222179 2.476499 2.475186 0.000000 0.000000 0.000000 0.000000 0.000000 0.000000 0.000000 0.000000 0.000000 0.000000 0.000000 0.000000 0.000000 0.000000 0.000000 0.000000 0.000000 0.000000 0.000000 0.000000 0.000000 0.000000 0.000000 0.000000 0.000000 0.000000 0.000000 0.000000 0.000000 0.000000 0.000000 0.000000 0.000000 0.000000 0.000000 0.000000 0.000000 0.000000 0.000000 0.000000 0.000000 0.000000
0.037011 -0.272672 1.021145 -15.111550 -0.950724 4.013022 -70.366318 -4.719659 -13.408424 115.607880 10.169308 -14.123764 -26.502544 -5.765216 5.521875 -2.743419 -6.481103 -2.173103 -75.455627 7.536852 10.697120 123.724677 -13.737547 7.784104 -36.670747 12.032019 -0.919130 2.309591 -7.479299 -0.042639 39.669325 0.062827 0.422515 2.533526 -7.852713 -3.642706 -12.461229 3.200427 1.877931 -0.353577 3.609783 12.633825 0.485490 1.981469 1.956115 7.432294 16.448487 -22.745848 -3.670008 35.794906 -22.958591 1.069293 -10.000065 -28.535539 -0.074887 -11.043117 -1.149810 0.000000 0.000000 0.000000 0.000000 0.000000 0.000000 0.000000 0.000000 0.000000 0.000000 0.000000 0.000000 0.000000 0.000000 0.000000 0.000000 0.000000 0.000000 0.000000 0.000000 0.000000 0.000000 0.000000 0.000000 0.000000 0.000000 0.000000 0.000000 0.000000 0.000000 0.000000 0.000000 0.000000 0.000000 0.000000 0.000000 0.000000 0.000000 0.000000 0.000000 0.000000 0.000000 6.189209 -15.134681 19.187180 6.418662 -39.381694 24.642918 -2.498869 11.672324 32.662763 -4.180382 2.522668 2.507623 0.000000 0.000000 0.000000 0.000000 0.000000 0.000000 0.000000 0.000000 0.000000 0.000000 0.000000 0.000000 0.000000 0.000000 0.000000 0.000000 0.000000 0.000000 0.000000 0.000000 0.000000 0.000000 0.000000 0.000000 0.000000 0.000000 0.000000 0.000000 0.000000 0.000000 0.000000 0.000000 0.000000 0.000000 0.000000 0.000000 0.000000 0.000000 0.000000 0.000000 0.000000 0.000000
0.037087 -0.272662 1.021083 -15.153203 -0.964689 4.036660 -70.390510 -4.697326 -13.430106 115.711467 10.147154 -14.103410 -26.901685 -5.975415 5.490780 -2.715847 -6.427118 -2.165477 -75.470658 7.559550 10.736732 123.931040 -13.700254 7.786009 -37.186166 12.226119 -0.873631 2.301545 -7.451074 -0.038907 39.766589 0.073917 0.436727 2.558363 -7.860186 -3.642021 -12.514424 3.183640 1.878107 -0.303401 3.634406 12.587044 0.527586 1.955493 1.993980 7.474970 16.456486 -22.800227 -3.655154 35.789749 -22.967514 1.137323 -10.082718 -28.554450 0.034421 -11.099820 -1.152980 0.000000 0.000000 0.000000 0.000000 0.000000 0.000000 0.000000 0.000000 0.000000 0.000000 0.000000 0.000000 0.000000 0.000000 0.000000 0.000000 0.000000 0.000000 0.000000 0.000000 0.000000 0.000000 0.000000 0.000000 0.000000 0.000000 0.000000 0.000000 0.000000 0.000000 0.000000 0.000000 0.000000 0.000000 0.000000 0.000000 0.000000 0.000000 0.000000 0.000000 0.000000 0.000000 6.233954 -15.090663 19.244144 6.370335 -39.401798 24.592939 -2.507206 11.676376 32.653133 -4.219682 2.577945 2.539703 0.000000 0.000000 0.000000 0.000000 0.000000 0.000000 0.000000 0.000000 0.000000 0.000000 0.000000 0.000000 0.000000 0.000000 0.000000 0.000000 0.000000 0.000000 0.000000 0.000000 0.000000 0.000000 0.000000 0.000000 0.000000 0.000000 0.000000 0.000000 0.000000 0.000000 0.000000 0.000000 0.000000 0.000000 0.000000 0.000000 0.000000 0.000000 0.000000 0.000000 0.000000 0.000000
0.036870 -0.272792 1.021156 -15.165826 -0.966589 4.060862 -70.479886 -4.649757 -13.448353 115.804001 10.134322 -14.106350 -27.183365 -6.116652 5.514951 -2.701076 -6.384641 -2.166627 -75.549975 7.577522 10.787639 124.104646 -13.664515 7.795481 -37.521230 12.347672 -0.862498 2.295522 -7.421338 -0.025595 39.869622 0.061600 0.440970 2.541815 -7.847527 -3.649333 -12.542241 3.170706 1.872417 -0.340804 3.623380 12.547984 0.514128 1.937162 1.987516 7.470468 16.426217 -22.862742 -3.593502 35.798624 -23.018508 1.159557 -10.135746 -28.515803 0.072648 -11.179266 -1.133622 0.000000 0.000000 0.000000 0.000000 0.000000 0.000000 0.000000 0.000000 0.000000 0.000000 0.000000 0.000000 0.000000 0.000000 0.000000 0.000000 0.000000 0.000000 0.000000 0.000000 0.000000 0.000000 0.000000 0.000000 0.000000 0.000000 0.000000 0.000000 0.000000 0.000000 0.000000 0.000000 0.000000 0.000000 0.000000 0.000000 0.000000 0.000000 0.000000 0.000000 0.000000 0.000000 6.234741 -15.042323 19.292977 6.367847 -39.411925 24.582416 -2.530379 11.662021 32.626833 -4.274396 2.662393 2.531106 0.000000 0.000000 0.000000 0.000000 0.000000 0.000000 0.000000 0.000000 0.000000 0.000000 0.000000 0.000000 0.000000 0.000000 0.000000 0.000000 0.000000 0.000000 0.000000 0.000000 0.000000 0.000000 0.000000 0.000000 0.000000 0.000000 0.000000 0.000000 0.000000 0.000000 0.000000 0.000000 0.000000 0.000000 0.000000 0.000000 0.000000 0.000000 0.000000 0.000000 0.000000 0.000000
